<svg width="970" height="364" viewBox="0 0 970 364" fill="none" xmlns="http://www.w3.org/2000/svg">
<mask id="path-1-outside-1_132_67" maskUnits="userSpaceOnUse" x="3" y="2" width="963" height="360" fill="black">
<rect fill="white" x="3" y="2" width="963" height="360"/>
<path fill-rule="evenodd" clip-rule="evenodd" d="M180.532 14C139.663 14 106.532 47.131 106.532 88.0001V104.677L20.612 179.943C11.004 188.359 17.472 204.171 30.2243 203.441L106.532 199.071V275.58C106.532 316.449 139.663 349.58 180.532 349.58H879.534C920.404 349.58 953.534 316.449 953.534 275.579V88C953.534 47.1309 920.403 14 879.534 14H180.532Z"/>
</mask>
<path fill-rule="evenodd" clip-rule="evenodd" d="M180.532 14C139.663 14 106.532 47.131 106.532 88.0001V104.677L20.612 179.943C11.004 188.359 17.472 204.171 30.2243 203.441L106.532 199.071V275.58C106.532 316.449 139.663 349.58 180.532 349.58H879.534C920.404 349.58 953.534 316.449 953.534 275.579V88C953.534 47.1309 920.403 14 879.534 14H180.532Z" fill="white"/>
<path d="M106.532 104.677L114.439 113.704L118.532 110.119V104.677H106.532ZM20.612 179.943L12.7049 170.916H12.7049L20.612 179.943ZM30.2243 203.441L29.5383 191.461H29.5383L30.2243 203.441ZM106.532 199.071H118.532V186.365L105.846 187.091L106.532 199.071ZM118.532 88.0001C118.532 53.7584 146.29 26 180.532 26V2C133.035 2 94.5318 40.5036 94.5318 88.0001H118.532ZM118.532 104.677V88.0001H94.5318V104.677H118.532ZM28.5192 188.969L114.439 113.704L98.6246 95.651L12.7049 170.916L28.5192 188.969ZM29.5383 191.461C28.9819 191.493 28.7745 191.362 28.683 191.3C28.5198 191.19 28.2946 190.957 28.1397 190.579C27.9849 190.2 27.9821 189.876 28.0217 189.683C28.0439 189.575 28.1 189.337 28.5192 188.969L12.7049 170.916C-5.49248 186.857 6.75777 216.805 30.9104 215.421L29.5383 191.461ZM105.846 187.091L29.5383 191.461L30.9104 215.421L107.218 211.052L105.846 187.091ZM118.532 275.58V199.071H94.5318V275.58H118.532ZM180.532 337.58C146.29 337.58 118.532 309.821 118.532 275.58H94.5318C94.5318 323.076 133.035 361.58 180.532 361.58V337.58ZM879.534 337.58H180.532V361.58H879.534V337.58ZM941.534 275.579C941.534 309.821 913.776 337.58 879.534 337.58V361.58C927.031 361.58 965.534 323.076 965.534 275.579H941.534ZM941.534 88V275.579H965.534V88H941.534ZM879.534 26C913.776 26 941.534 53.7584 941.534 88H965.534C965.534 40.5035 927.031 2 879.534 2V26ZM180.532 26H879.534V2H180.532V26Z" fill="#FFEB0D" mask="url(#path-1-outside-1_132_67)"/>
</svg>
