<svg width="779" height="1001" viewBox="0 0 779 1001" fill="none" xmlns="http://www.w3.org/2000/svg">
<path d="M257.3 1031.83L92.8866 1016.73L115.886 590.188L312.38 608.235L257.3 1031.83Z" fill="#C53036"/>
<path d="M496.044 998.319L332.457 1059.87L137.251 589.459L332.757 515.901L496.044 998.319Z" fill="#E53A40"/>
<path d="M191.844 328.711C216.119 305.829 254.348 306.958 277.231 331.233L302.914 358.48C324.914 381.819 356.803 392.763 388.189 388.196L478.499 364.533C488.838 361.823 499.416 368.009 502.125 378.348C502.482 379.711 502.685 381.077 502.744 382.43L537.758 373.255C545.904 371.12 554.239 375.994 556.373 384.14C557.141 387.072 557.002 390.028 556.129 392.71C564.034 391.047 571.935 395.869 574.005 403.77C575.712 410.284 572.937 416.919 567.591 420.407C569.604 422.191 571.13 424.571 571.863 427.368C573.833 434.888 569.335 442.581 561.815 444.551L554.095 446.574C556.661 448.343 558.63 451.005 559.481 454.256C561.37 461.462 557.059 468.835 549.852 470.723L475.726 492.037L381.508 514.352C332.094 526.055 280.19 510.499 245.358 473.546L189.321 414.099C166.439 389.823 167.568 351.594 191.844 328.711Z" fill="#EDBAB1"/>
<path fill-rule="evenodd" clip-rule="evenodd" d="M300.233 355.636L211.939 438.093L189.321 414.099C166.439 389.823 167.568 351.594 191.843 328.711C216.119 305.829 254.348 306.958 277.231 331.234L300.233 355.636Z" fill="#808080"/>
<rect x="173.493" y="122.602" width="138.259" height="138.259" rx="69.1294" fill="#3B3B3B"/>
<path fill-rule="evenodd" clip-rule="evenodd" d="M305.257 162.439C309.424 171.333 311.752 181.26 311.752 191.731C311.752 229.91 280.802 260.86 242.622 260.86C228.664 260.86 215.671 256.723 204.804 249.608C205.339 247.972 206.135 246.366 207.216 244.836L216.841 231.229C218.806 228.452 220.19 225.33 220.934 222.049C211.388 220.878 203.998 212.802 203.998 203.014V201.539C203.998 191.31 212.068 182.952 222.235 182.388C224.877 170.959 235.119 162.439 247.351 162.439L305.257 162.439Z" fill="#F7CFC7"/>
<path d="M120.482 334.015C124.784 302.69 150.365 278.615 181.894 276.222L291.897 267.871C326.685 265.229 357.696 289.682 363.241 324.127L400.892 558.022C407.153 596.918 378.723 632.816 339.427 635.633L159.029 648.56C116.494 651.609 81.9387 614.734 87.7394 572.487L120.482 334.015Z" fill="#30B8F3"/>
<path d="M259.517 302.761C291.796 294.336 324.794 313.673 333.219 345.952L342.675 382.182C351.504 416.006 377.707 442.551 411.415 451.818L444.964 461.041L539.472 484.733C549.816 487.421 556.023 497.986 553.335 508.331C552.981 509.695 552.49 510.986 551.88 512.195L586.913 521.298C595.064 523.416 599.954 531.741 597.836 539.891C597.074 542.824 595.508 545.335 593.435 547.249C601.145 549.661 605.683 557.729 603.629 565.633C601.935 572.152 596.272 576.585 589.902 577.015C590.788 579.556 590.956 582.377 590.229 585.177C588.274 592.7 580.59 597.214 573.066 595.259L565.342 593.252C566.717 596.049 567.133 599.333 566.288 602.586C564.414 609.796 557.051 614.122 549.841 612.249L430.192 582.288L336.823 556.648C287.855 543.201 249.784 504.645 236.959 455.509L216.327 376.462C207.901 344.183 227.238 311.186 259.517 302.761Z" fill="#F7CFC7"/>
<path fill-rule="evenodd" clip-rule="evenodd" d="M342.921 383.105L225.883 413.074L216.327 376.462C207.901 344.183 227.238 311.186 259.517 302.761C291.796 294.336 324.794 313.673 333.219 345.952L342.675 382.182C342.756 382.49 342.838 382.798 342.921 383.105Z" fill="#30B8F3"/>
<circle cx="288.5" cy="194.5" r="8.5" fill="#3B3B3B"/>
</svg>
