<svg width="521" height="879" viewBox="0 0 521 879" fill="none" xmlns="http://www.w3.org/2000/svg">
<path d="M173.3 909.83L8.88663 894.729L31.8861 468.188L228.38 486.235L173.3 909.83Z" fill="#C53036"/>
<path d="M412.044 876.319L248.457 937.868L53.2506 467.459L248.757 393.901L412.044 876.319Z" fill="#E53A40"/>
<path d="M107.844 206.711C132.119 183.829 170.348 184.958 193.231 209.233L218.914 236.48C240.914 259.819 272.803 270.763 304.189 266.196L394.499 242.533C404.838 239.823 415.416 246.009 418.125 256.348C418.482 257.711 418.685 259.077 418.744 260.43L453.758 251.255C461.904 249.12 470.239 253.994 472.373 262.14C473.141 265.072 473.002 268.028 472.129 270.71C480.034 269.047 487.935 273.869 490.005 281.77C491.712 288.284 488.937 294.919 483.591 298.407C485.604 300.191 487.13 302.571 487.863 305.368C489.833 312.888 485.335 320.581 477.815 322.551L470.095 324.574C472.661 326.343 474.63 329.005 475.481 332.256C477.37 339.462 473.059 346.835 465.852 348.723L391.726 370.037L297.508 392.352C248.094 404.055 196.19 388.499 161.358 351.546L105.321 292.099C82.4388 267.823 83.568 229.594 107.844 206.711Z" fill="#EDBAB1"/>
<path fill-rule="evenodd" clip-rule="evenodd" d="M216.233 233.636L127.939 316.093L105.321 292.099C82.4387 267.823 83.5679 229.594 107.843 206.711C132.119 183.829 170.348 184.958 193.231 209.234L216.233 233.636Z" fill="#808080"/>
<rect x="89.4933" y="0.601685" width="138.259" height="138.259" rx="69.1294" fill="#3B3B3B"/>
<path fill-rule="evenodd" clip-rule="evenodd" d="M221.257 40.439C225.424 49.333 227.752 59.2602 227.752 69.7311C227.752 107.91 196.802 138.86 158.622 138.86C144.664 138.86 131.671 134.723 120.804 127.608C121.339 125.972 122.135 124.366 123.216 122.836L132.841 109.229C134.806 106.452 136.19 103.33 136.934 100.049C127.388 98.8777 119.998 90.802 119.998 81.014V79.5385C119.998 69.3101 128.068 60.9516 138.235 60.3879C140.877 48.9588 151.119 40.439 163.351 40.439L221.257 40.439Z" fill="#F7CFC7"/>
<path d="M36.4824 212.015C40.7835 180.69 66.3653 156.615 97.8938 154.222L207.897 145.871C242.685 143.229 273.696 167.682 279.241 202.127L316.892 436.022C323.153 474.918 294.723 510.816 255.427 513.633L75.029 526.56C32.4943 529.609 -2.06128 492.734 3.73944 450.487L36.4824 212.015Z" fill="#30B8F3"/>
<path d="M175.517 180.761C207.796 172.336 240.794 191.673 249.219 223.952L258.675 260.182C267.504 294.006 293.707 320.551 327.415 329.818L360.964 339.041L455.472 362.733C465.816 365.421 472.023 375.986 469.335 386.331C468.981 387.695 468.49 388.986 467.88 390.195L502.913 399.298C511.064 401.416 515.954 409.741 513.836 417.891C513.074 420.824 511.508 423.335 509.435 425.249C517.145 427.661 521.683 435.729 519.629 443.633C517.935 450.152 512.272 454.585 505.902 455.015C506.788 457.556 506.956 460.377 506.229 463.177C504.274 470.7 496.59 475.214 489.066 473.259L481.342 471.252C482.717 474.049 483.133 477.333 482.288 480.586C480.414 487.796 473.051 492.122 465.841 490.249L346.192 460.288L252.823 434.648C203.855 421.201 165.784 382.645 152.959 333.509L132.327 254.462C123.901 222.183 143.238 189.186 175.517 180.761Z" fill="#F7CFC7"/>
<path fill-rule="evenodd" clip-rule="evenodd" d="M258.921 261.105L141.883 291.074L132.327 254.462C123.901 222.183 143.238 189.186 175.517 180.761C207.796 172.336 240.794 191.673 249.219 223.952L258.675 260.182C258.756 260.49 258.838 260.798 258.921 261.105Z" fill="#30B8F3"/>
<circle cx="204.5" cy="72.5" r="8.5" fill="#3B3B3B"/>
</svg>
