<svg width="825" height="1080" viewBox="0 0 825 1080" fill="none" xmlns="http://www.w3.org/2000/svg">
<path d="M679.338 105.975C549.979 154.771 546.755 161.123 583.75 294.337C534.954 164.979 528.602 161.755 395.388 198.75C524.747 149.954 527.97 143.602 490.975 10.3876C539.771 139.746 546.123 142.97 679.338 105.975Z" fill="#EFEFEF"/>
<path d="M452.706 84.6076C412.109 93.1507 410.862 94.8866 415.729 136.086C407.186 95.4893 405.45 94.2424 364.251 99.1092C404.847 90.5662 406.094 88.8302 401.228 47.6309C409.771 88.2275 411.507 89.4744 452.706 84.6076Z" fill="#EFEFEF"/>
<path d="M525.938 242.32C496.271 248.562 495.36 249.831 498.917 279.938C492.674 250.271 491.405 249.36 461.299 252.917C490.965 246.674 491.876 245.405 488.32 215.299C494.562 244.965 495.831 245.876 525.938 242.32Z" fill="#EFEFEF"/>
<path d="M555.273 915.52C519.906 895.665 517.87 896.139 494.923 929.583C514.778 894.215 514.303 892.18 480.859 869.233C516.227 889.087 518.262 888.613 541.21 855.169C521.355 890.537 521.829 892.572 555.273 915.52Z" fill="#EFEFEF"/>
<path d="M128.025 826.913C59.5165 852.184 57.7895 855.526 76.8122 926.025C51.542 857.517 48.1997 855.79 -22.2995 874.812C46.209 849.542 47.936 846.2 28.9134 775.7C54.1836 844.209 57.5258 845.936 128.025 826.913Z" fill="#EFEFEF"/>
<path d="M688.535 844.336C674.432 869.294 653.423 896.846 626.582 905.188C620.935 906.945 618.956 914.139 622.944 918.54C641.296 938.746 645.703 971.781 645.488 999.923C621.126 985.833 594.892 965.277 586.788 939.213C585.031 933.565 577.837 931.586 573.436 935.574C552.653 954.462 518.253 958.59 489.59 958.084C480.919 957.95 477.803 969.385 485.344 973.668C510.302 987.771 537.854 1008.78 546.196 1035.62C547.953 1041.27 555.147 1043.25 559.548 1039.26C579.754 1020.91 612.789 1016.5 640.931 1016.71C626.841 1041.08 606.285 1067.31 580.221 1075.41C574.574 1077.17 572.595 1084.37 576.583 1088.77C595.483 1109.57 599.611 1143.97 599.105 1172.63C598.971 1181.31 610.406 1184.42 614.654 1176.87C628.757 1151.91 649.765 1124.36 676.606 1116.02C682.254 1114.26 684.233 1107.07 680.245 1102.67C661.893 1082.46 657.486 1049.43 657.701 1021.28C682.063 1035.37 708.296 1055.93 716.4 1081.99C718.157 1087.64 725.352 1089.62 729.753 1085.63C750.557 1066.73 784.958 1062.6 813.621 1063.11C822.269 1063.26 825.407 1051.81 817.857 1047.56C792.899 1033.46 765.347 1012.45 757.006 985.609C755.249 979.962 748.054 977.983 743.653 981.971C723.447 1000.32 690.413 1004.73 662.27 1004.51C676.361 980.152 696.916 953.919 722.981 945.815C728.628 944.058 730.607 936.863 726.619 932.462C707.719 911.658 703.59 877.257 704.097 848.595C704.243 839.946 692.795 836.808 688.547 844.358L688.535 844.336Z" fill="#EFEFEF"/>
<path d="M191.634 502.044C174.925 492.727 156.458 478.812 150.79 460.931C149.596 457.169 144.787 455.876 141.865 458.554C128.451 470.877 106.422 473.944 87.6399 473.907C96.9508 457.596 110.569 440.011 127.932 434.504C131.694 433.31 132.987 428.501 130.309 425.579C117.626 411.782 114.741 388.84 114.97 369.711C115.026 363.924 107.383 361.888 104.554 366.936C95.2365 383.645 81.3213 402.112 63.4406 407.78C59.6787 408.974 58.3854 413.783 61.0634 416.705C73.3869 430.12 76.4533 452.148 76.4167 470.93C60.1053 461.619 42.5205 448.001 37.0135 430.638C35.8195 426.876 31.0107 425.583 28.0888 428.261C14.2768 440.952 -8.66479 443.838 -27.7945 443.609C-33.5816 443.552 -35.6174 451.196 -30.5628 454.002C-13.8537 463.319 4.61275 477.234 10.2814 495.115C11.4755 498.877 16.2843 500.17 19.2062 497.492C32.6206 485.168 54.6495 482.102 73.4313 482.139C64.1204 498.45 50.5024 516.035 33.1389 521.542C29.377 522.736 28.0836 527.545 30.7617 530.467C43.4535 544.279 46.3392 567.22 46.1101 586.35C46.0449 592.122 53.6966 594.173 56.5028 589.118C65.8198 572.409 79.735 553.943 97.6158 548.274C101.378 547.08 102.671 542.271 99.993 539.349C87.6694 525.935 84.603 503.906 84.6396 485.124C100.951 494.435 118.536 508.053 124.043 525.416C125.237 529.178 130.046 530.472 132.968 527.794C146.78 515.102 169.721 512.216 188.851 512.445C194.623 512.51 196.674 504.859 191.619 502.052L191.634 502.044Z" fill="#EFEFEF"/>
</svg>
