<svg width="589" height="924" viewBox="0 0 589 924" fill="none" xmlns="http://www.w3.org/2000/svg">
<path d="M282.22 1126.16L128.088 1080.13C128.088 1080.13 185.651 708.101 232.048 677.154C278.446 646.206 414.044 713.368 416.255 732.162C418.466 750.956 282.22 1126.16 282.22 1126.16Z" fill="#25C86D"/>
<path d="M588.948 1073.42L429.57 1133.39C429.57 1133.39 176.382 707.256 239.385 675.078C302.388 642.9 414.415 586.745 429.862 603.413C445.31 620.08 588.948 1073.42 588.948 1073.42Z" fill="#2DDF7B"/>
<path d="M309.839 101.231L354.51 235.849C356.559 242.025 358.074 248.365 359.036 254.8L380.297 396.905C385.21 429.74 362.524 460.324 329.676 465.149C296.89 469.966 266.406 447.292 261.589 414.505L242.696 285.906C241.736 279.37 240.207 272.93 238.126 266.659L207.434 174.168L179.722 91.6724C176.904 83.2843 180.727 74.4329 188.261 71.9021C189.856 71.3665 191.488 71.157 193.099 71.2389L181.754 37.4675C178.936 29.0794 182.759 20.228 190.293 17.6972C193.953 16.4679 197.815 16.9562 201.142 18.7449C200.25 11.5192 203.986 4.64652 210.477 2.46602C216.308 0.507267 222.653 2.90896 226.53 7.98378C228.339 5.80895 230.696 4.12507 233.49 3.18645C240.953 0.679467 249.137 4.29494 253.45 11.4338C254.873 10.391 256.464 9.55386 258.203 8.96951C268.248 5.59516 279.437 11.9262 283.194 23.1103L309.839 101.231Z" fill="#EDBAB1"/>
<path fill-rule="evenodd" clip-rule="evenodd" d="M373.481 351.346L254.87 368.771L261.589 414.505C266.406 447.292 296.89 469.966 329.676 465.15C362.524 460.324 385.21 429.741 380.297 396.905L373.481 351.346Z" fill="#F2DE00"/>
<rect x="271.542" y="227.052" width="137.522" height="137.522" rx="68.7609" fill="#3B3B3B"/>
<path fill-rule="evenodd" clip-rule="evenodd" d="M402.604 266.677C406.748 275.523 409.064 285.397 409.064 295.812C409.064 333.788 378.278 364.573 340.303 364.573C326.418 364.573 313.495 360.458 302.686 353.381C303.217 351.753 304.009 350.156 305.085 348.635L314.659 335.1C316.613 332.337 317.989 329.232 318.73 325.969C309.235 324.804 301.884 316.771 301.884 307.035V305.568C301.884 295.394 314.659 283.213 327.619 295.229C322.036 286.794 332.839 266.677 345.006 266.677H402.604Z" fill="#F7CFC7"/>
<path d="M286.981 320.945C281.561 319.508 276.673 316.533 272.906 312.381C260.664 298.885 239.164 299.856 228.189 314.4L179.364 379.105C174.049 386.149 167.646 392.301 160.396 397.332L75.7685 456.045C51.8409 472.646 58.0055 509.6 86.0261 517.535C104.832 522.86 115.453 542.74 109.425 561.333L105.061 574.793C97.3374 598.617 109.187 624.381 132.302 634.021L150.843 641.753C188.516 657.465 231.579 637.69 244.214 598.877L282.284 481.935L311.434 360.452C315.577 343.187 305.183 325.771 288.02 321.221L286.981 320.945Z" fill="#3B3B3B"/>
<path d="M213.617 437.06C218.184 406.892 242.623 383.66 272.983 380.626L370.669 370.862C403.473 367.583 433.759 388.742 441.965 420.673L502.247 655.239C512.615 695.583 483.91 735.465 442.361 738.442L248.253 752.353C205.569 755.412 171.069 718.084 177.476 675.772L213.617 437.06Z" fill="#FFEB0D"/>
<ellipse cx="461.026" cy="510.039" rx="7.51811" ry="12.0165" transform="rotate(-14.0654 461.026 510.039)" fill="#474747"/>
<ellipse cx="479.564" cy="576.706" rx="7.51811" ry="12.0165" transform="rotate(-14.0654 479.564 576.706)" fill="#474747"/>
<ellipse cx="445.394" cy="444.467" rx="7.51811" ry="12.0165" transform="rotate(-14.0654 445.394 444.467)" fill="#474747"/>
<path d="M147.58 132.29L238.751 240.943C242.933 245.927 246.679 251.262 249.947 256.888L322.119 381.134C338.795 409.843 328.989 446.637 300.236 463.237C271.537 479.806 234.84 469.973 218.271 441.274L153.281 328.709C149.978 322.987 146.181 317.565 141.934 312.504L79.2942 237.853L23.1104 171.393C17.3977 164.636 17.6867 154.998 23.756 149.867C25.0405 148.782 26.4808 147.985 28.0078 147.467L5.00768 120.26C-0.705034 113.503 -0.415959 103.865 5.65334 98.7344C8.6016 96.242 12.3715 95.2715 16.1239 95.707C12.6296 89.3198 13.5679 81.5535 18.7972 77.1328C23.4947 73.1616 30.278 73.0539 35.753 76.3412C36.6327 73.6524 38.2022 71.2181 40.4532 69.3151C46.4655 64.2324 55.4064 64.5745 62.0479 69.6195C62.9855 68.1256 64.1558 66.7606 65.5572 65.5759C73.6496 58.7347 86.3845 60.4929 94.0015 69.5029L147.58 132.29Z" fill="#F7CFC7"/>
<path fill-rule="evenodd" clip-rule="evenodd" d="M298.981 341.3L195.158 401.242L218.271 441.275C234.84 469.973 271.537 479.806 300.236 463.237C328.989 446.637 338.796 409.843 322.119 381.134L298.981 341.3Z" fill="#FFEB0D"/>
<circle cx="385.5" cy="297.487" r="9.5" fill="#3B3B3B"/>
<path d="M382.499 291.593C387.997 291.789 390.124 292.194 392.039 287.204" stroke="#3B3B3B" stroke-width="3.23642" stroke-linecap="round"/>
</svg>
