<svg width="644" height="957" viewBox="0 0 644 957" fill="none" xmlns="http://www.w3.org/2000/svg">
<path d="M319.22 1159.16L165.088 1113.13C165.088 1113.13 222.651 741.101 269.048 710.154C315.446 679.206 451.044 746.368 453.255 765.162C455.466 783.956 319.22 1159.16 319.22 1159.16Z" fill="#25C86D"/>
<path d="M625.948 1106.42L466.57 1166.39C466.57 1166.39 213.382 740.256 276.385 708.078C339.388 675.9 451.415 619.745 466.862 636.413C482.31 653.08 625.948 1106.42 625.948 1106.42Z" fill="#2DDF7B"/>
<path d="M346.839 134.231L391.51 268.849C393.559 275.025 395.074 281.365 396.036 287.8L417.297 429.905C422.21 462.74 399.524 493.324 366.676 498.149C333.89 502.966 303.406 480.292 298.589 447.505L279.696 318.906C278.736 312.37 277.207 305.93 275.126 299.659L244.434 207.168L216.722 124.672C213.904 116.284 217.727 107.433 225.261 104.902C226.856 104.367 228.488 104.157 230.099 104.239L218.754 70.4675C215.936 62.0794 219.759 53.228 227.293 50.6972C230.953 49.4679 234.815 49.9562 238.142 51.7449C237.25 44.5192 240.986 37.6465 247.477 35.466C253.308 33.5073 259.653 35.909 263.53 40.9838C265.339 38.8089 267.696 37.1251 270.49 36.1864C277.953 33.6795 286.137 37.2949 290.45 44.4338C291.873 43.391 293.464 42.5539 295.203 41.9695C305.248 38.5952 316.437 44.9262 320.194 56.1103L346.839 134.231Z" fill="#EDBAB1"/>
<path fill-rule="evenodd" clip-rule="evenodd" d="M410.481 384.346L291.87 401.771L298.589 447.505C303.406 480.292 333.89 502.966 366.676 498.15C399.524 493.324 422.21 462.741 417.297 429.905L410.481 384.346Z" fill="#F2DE00"/>
<rect x="308.542" y="260.052" width="137.522" height="137.522" rx="68.7609" fill="#3B3B3B"/>
<path fill-rule="evenodd" clip-rule="evenodd" d="M439.604 299.677C443.748 308.523 446.064 318.397 446.064 328.812C446.064 366.788 415.278 397.573 377.303 397.573C363.418 397.573 350.495 393.458 339.686 386.381C340.217 384.753 341.009 383.156 342.085 381.635L351.659 368.1C353.613 365.337 354.989 362.232 355.73 358.969C346.235 357.804 338.884 349.771 338.884 340.035V338.568C338.884 328.394 351.659 316.213 364.619 328.229C359.036 319.794 369.839 299.677 382.006 299.677H439.604Z" fill="#F7CFC7"/>
<path d="M323.981 353.945C318.561 352.508 313.673 349.533 309.906 345.381C297.664 331.885 276.164 332.856 265.189 347.4L216.364 412.105C211.049 419.149 204.646 425.301 197.396 430.332L112.768 489.045C88.8409 505.646 95.0055 542.6 123.026 550.535C141.832 555.86 152.453 575.74 146.425 594.333L142.061 607.793C134.337 631.617 146.187 657.381 169.302 667.021L187.843 674.753C225.516 690.465 268.579 670.69 281.214 631.877L319.284 514.935L348.434 393.452C352.577 376.187 342.183 358.771 325.02 354.221L323.981 353.945Z" fill="#3B3B3B"/>
<path d="M250.617 470.06C255.184 439.892 279.623 416.66 309.983 413.626L407.669 403.862C440.473 400.583 470.759 421.742 478.965 453.673L539.247 688.239C549.615 728.583 520.91 768.465 479.361 771.442L285.253 785.353C242.569 788.412 208.069 751.084 214.476 708.772L250.617 470.06Z" fill="#FFEB0D"/>
<ellipse cx="498.026" cy="543.039" rx="7.51811" ry="12.0165" transform="rotate(-14.0654 498.026 543.039)" fill="#474747"/>
<ellipse cx="516.564" cy="609.706" rx="7.51811" ry="12.0165" transform="rotate(-14.0654 516.564 609.706)" fill="#474747"/>
<ellipse cx="482.394" cy="477.467" rx="7.51811" ry="12.0165" transform="rotate(-14.0654 482.394 477.467)" fill="#474747"/>
<path d="M184.58 165.29L275.751 273.943C279.933 278.927 283.679 284.262 286.947 289.888L359.119 414.134C375.795 442.843 365.989 479.637 337.236 496.237C308.537 512.806 271.84 502.973 255.271 474.274L190.281 361.709C186.978 355.987 183.181 350.565 178.934 345.504L116.294 270.853L60.1104 204.393C54.3977 197.636 54.6867 187.998 60.756 182.867C62.0405 181.782 63.4808 180.985 65.0078 180.467L42.0077 153.26C36.295 146.503 36.584 136.865 42.6533 131.734C45.6016 129.242 49.3715 128.271 53.1239 128.707C49.6296 122.32 50.5679 114.554 55.7972 110.133C60.4947 106.162 67.278 106.054 72.753 109.341C73.6327 106.652 75.2022 104.218 77.4532 102.315C83.4655 97.2324 92.4064 97.5745 99.0479 102.62C99.9855 101.126 101.156 99.7606 102.557 98.5759C110.65 91.7347 123.385 93.4929 131.001 102.503L184.58 165.29Z" fill="#F7CFC7"/>
<path fill-rule="evenodd" clip-rule="evenodd" d="M335.981 374.3L232.158 434.242L255.271 474.275C271.84 502.973 308.537 512.806 337.236 496.237C365.989 479.637 375.796 442.843 359.119 414.134L335.981 374.3Z" fill="#FFEB0D"/>
<circle cx="422.5" cy="330.487" r="9.5" fill="#3B3B3B"/>
<path d="M419.499 324.593C424.997 324.789 427.124 325.194 429.039 320.204" stroke="#3B3B3B" stroke-width="3.23642" stroke-linecap="round"/>
</svg>
